<?xml version="1.0" encoding="UTF-8" standalone="no" ?>
<!DOCTYPE svg PUBLIC "-//W3C//DTD SVG 1.1//EN" "http://www.w3.org/Graphics/SVG/1.1/DTD/svg11.dtd">
<svg xmlns="http://www.w3.org/2000/svg" xmlns:xlink="http://www.w3.org/1999/xlink" version="1.1" width="271.9999999999997" height="271.9999999999997" viewBox="0 0 1080 1080" xml:space="preserve">
<desc>Created with Fabric.js 6.5.3</desc>
<defs>
</defs>
<g transform="matrix(5.9735 0 0 5.9735 540.9085 534.9606)"  >
<path style="stroke: none; stroke-width: 1; stroke-dasharray: none; stroke-linecap: butt; stroke-dashoffset: 0; stroke-linejoin: miter; stroke-miterlimit: 4; fill: rgb(162,0,183); fill-rule: nonzero; opacity: 1;"  transform=" translate(-25, -69.5623)" d="M 0 0 C 3.125 0.375 3.125 0.375 6 1 C 6.6875 3.3125 6.6875 3.3125 7 6 C 5.5195 7.668 5.5195 7.668 4 9 C 4.6291 9.147 5.2581 9.2939 5.9063 9.4453 C 14.1907 11.6162 20.3394 14.8142 24.9375 22.25 C 28.3045 29.0639 28.7653 35.1861 26.5625 42.4375 C 26.1313 43.6421 26.1313 43.6421 25.6914 44.8711 C 24.8456 47.1025 24.8456 47.1025 25 50 C 26.8832 51.1084 26.8832 51.1084 29 52 C 29.66 51.67 30.32 51.34 31 51 C 38.1237 50.5477 38.1237 50.5477 40.9375 52 C 42.6148 55.1572 42.6041 58.4619 43 62 C 47.995 57.0809 52.9783 52.1502 57.9536 47.2112 C 59.6485 45.5314 61.3461 43.8543 63.0464 42.1799 C 65.4859 39.7767 67.9157 37.364 70.3438 34.9492 C 71.1093 34.1991 71.8749 33.449 72.6637 32.6762 C 73.3644 31.9757 74.0651 31.2752 74.7871 30.5535 C 75.7198 29.6308 75.7198 29.6308 76.6713 28.6895 C 78.3091 26.9652 78.3091 26.9652 78 24 C 75.69 23.67 73.38 23.34 71 23 C 72.2708 17.5356 74.3981 15.1582 79 12 C 79.825 11.8763 80.65 11.7525 81.5 11.625 C 84.5656 10.8586 84.918 9.9863 86.75 7.5 C 88.5783 5.1595 89.4983 4.1439 92.3828 3.3164 C 94.6065 3.0899 96.766 2.9652 99 3 C 101.354 7.1149 101.2127 10.4884 100 15 C 99.0352 16.8281 99.0352 16.8281 97.9375 18.5625 C 95.6899 21.8513 95.6899 21.8513 96.125 25.5 C 95.9479 30.4582 93.4311 32.6403 90 36 C 89.34 35.34 88.68 34.68 88 34 C 88 32.68 88 31.36 88 30 C 84.7793 30.2906 83.3905 30.5473 81.239 33.0413 C 80.7206 33.9158 80.2021 34.7904 79.668 35.6914 C 78.8124 37.1078 78.8124 37.1078 77.9395 38.5527 C 77.3613 39.546 76.7832 40.5392 76.1875 41.5625 C 75.59 42.5596 74.9925 43.5567 74.377 44.584 C 72.9034 47.0478 71.4453 49.5195 70 52 C 70.8103 52.4347 71.6207 52.8695 72.4556 53.3174 C 75 55 75 55 75.7109 57.9219 C 75.2677 63.9012 71.5211 69.1665 68.625 74.25 C 68.0217 75.338 67.4184 76.4259 66.7969 77.5469 C 64.6274 81.4423 62.4739 85.2891 60 89 C 61.2124 88.8395 61.2124 88.8395 62.4492 88.6758 C 63.5179 88.5559 64.5865 88.436 65.6875 88.3125 C 66.7432 88.1849 67.799 88.0573 68.8867 87.9258 C 72.5055 88.0121 74.1432 88.8329 77 91 C 78.2027 93.4055 78.1007 94.95 78.0625 97.625 C 78.0535 98.4423 78.0445 99.2595 78.0352 100.1016 C 78.0178 101.0413 78.0178 101.0413 78 102 C 78.785 101.7602 79.5701 101.5205 80.3789 101.2734 C 91.0206 98.2703 91.0206 98.2703 97 101 C 99.5527 103.5527 99.2977 104.5833 99.3125 108.125 C 99.2361 113.3974 98.1642 117.2207 96 122 C 101.28 122.33 106.56 122.66 112 123 C 112 123.66 112 124.32 112 125 C 106.06 125 100.12 125 94 125 C 92.749 121.247 93.8561 119.8567 95.2969 116.3398 C 96.5173 112.2786 96.2322 108.1972 96 104 C 92.3382 102.1691 88.0148 102.7273 84 103 C 81.2143 103.9126 81.2143 103.9126 79 105 C 77.68 105 76.36 105 75 105 C 75.0174 103.9694 75.0174 103.9694 75.0352 102.918 C 75.0442 102.0169 75.0532 101.1159 75.0625 100.1875 C 75.0799 98.8475 75.0799 98.8475 75.0977 97.4805 C 75.1101 94.8659 75.1101 94.8659 74 92 C 68.1315 90.8518 62.9115 91.2269 57 92 C 57.5811 88.3333 58.5772 85.575 60.3984 82.3477 C 60.878 81.4885 61.3575 80.6293 61.8516 79.7441 C 62.3543 78.8592 62.857 77.9743 63.375 77.0625 C 69.8468 67.1344 69.8468 67.1344 72 56 C 69.03 55.505 69.03 55.505 66 55 C 67.7149 50.0806 70.3853 45.8131 73.0625 41.375 C 73.9727 39.8636 74.8803 38.3506 75.7852 36.8359 C 76.1861 36.1713 76.5871 35.5066 77.0002 34.8218 C 78.144 32.8665 78.144 32.8665 79 30 C 78.5704 30.4407 78.1408 30.8814 77.6982 31.3355 C 73.2359 35.9081 68.7563 40.4633 64.2661 45.0085 C 62.5913 46.7085 60.9211 48.4129 59.2554 50.1218 C 56.8642 52.5735 54.4574 55.0088 52.0469 57.4414 C 51.3019 58.2121 50.557 58.9829 49.7895 59.777 C 49.0891 60.4778 48.3886 61.1786 47.667 61.9006 C 47.0541 62.5246 46.4412 63.1486 45.8098 63.7915 C 44 65 44 65 41.7708 64.6937 C 41.1864 64.4648 40.6021 64.2359 40 64 C 39.9394 63.3619 39.8788 62.7238 39.8164 62.0664 C 39.7326 61.2401 39.6488 60.4138 39.5625 59.5625 C 39.4813 58.7388 39.4001 57.9151 39.3164 57.0664 C 39.2107 55.0134 39.2107 55.0134 38 54 C 35.667 53.9591 33.3329 53.9576 31 54 C 30.7451 57.2237 30.7451 57.2237 33 60.375 C 35.9198 66.0164 35.7836 71.8023 35 78 C 33.3635 82.9621 29.8995 86.6136 26 90 C 25.34 90 24.68 90 24 90 C 24.0606 90.7801 24.1212 91.5602 24.1836 92.364 C 24.4608 95.9715 24.7304 99.5795 25 103.1875 C 25.0954 104.414 25.1908 105.6406 25.2891 106.9043 C 25.8837 114.9534 26.1221 122.9298 26 131 C 26.8245 131.1438 27.649 131.2876 28.4985 131.4358 C 36.75 132.875 36.75 132.875 39 134 C 38 137 38 137 36 138 C 34.0976 138.1302 32.1909 138.1982 30.2844 138.2371 C 29.0859 138.2635 27.8874 138.2899 26.6525 138.3171 C 25.3505 138.34 24.0485 138.363 22.707 138.3867 C 21.359 138.4124 20.011 138.4382 18.663 138.4641 C 15.8326 138.5171 13.0022 138.566 10.1716 138.6125 C 6.558 138.6727 2.9448 138.747 -0.6685 138.8249 C -3.4557 138.8828 -6.2431 138.931 -9.0306 138.9765 C -11.0065 139.0111 -12.9822 139.0553 -14.9578 139.0998 C -21.0379 139.1846 -26.2838 139.1738 -32 137 C -32 135.68 -32 134.36 -32 133 C -27.05 132.01 -27.05 132.01 -22 131 C -21.9394 129.3255 -21.8788 127.651 -21.8164 125.9258 C -21.732 123.7213 -21.6473 121.5169 -21.5625 119.3125 C -21.5232 118.2097 -21.4839 117.1069 -21.4434 115.9707 C -21.3805 114.3707 -21.3805 114.3707 -21.3164 112.7383 C -21.2797 111.759 -21.2431 110.7797 -21.2053 109.7708 C -21.0078 107.1053 -20.5843 104.6053 -20 102 C -34.724 103.0409 -34.724 103.0409 -47.4375 110 C -49.951 114.8259 -49.7625 119.5975 -50 125 C -53.96 125 -57.92 125 -62 125 C -62 124.34 -62 123.68 -62 123 C -57.545 122.505 -57.545 122.505 -53 122 C -52.9175 120.6388 -52.835 119.2775 -52.75 117.875 C -52.0949 112.0792 -49.8404 108.6988 -45.5625 104.75 C -37.774 99.431 -29.0909 99.852 -20 100 C -20 97.03 -20 94.06 -20 91 C -21.0828 90.6906 -21.0828 90.6906 -22.1875 90.375 C -26.3453 88.3423 -28.9141 85.1718 -31 81 C -31.5668 74.6231 -31.0319 69.4085 -28.7266 63.4727 C -27.5016 59.3038 -27.4754 55.0446 -27.3086 50.7227 C -27 48 -27 48 -25 46 C -22.375 45.375 -22.375 45.375 -20 45 C -20.3506 44.0719 -20.7013 43.1437 -21.0625 42.1875 C -22.9533 35.4054 -22.0653 28.4537 -18.9375 22.1875 C -14.4217 14.9336 -7.9308 11.5492 0 9 C -0.66 8.34 -1.32 7.68 -2 7 C -2.25 4.5 -2.25 4.5 -2 2 C -1.34 1.34 -0.68 0.68 0 0 Z M -15.5 20.8125 C -19.4671 26.8137 -20.6562 32.653 -19.6016 39.7656 C -17.8058 46.4355 -13.5144 51.0939 -8 55 C -1.9413 57.8919 5.1877 58.3387 11.5586 56.1016 C 13.9701 54.9286 13.9701 54.9286 17 53 C 17 52.67 17 52.34 17 52 C 16.0216 51.7622 16.0216 51.7622 15.0234 51.5195 C 8.3038 49.7256 3.2712 47.923 -0.375 41.625 C -1.1946 38.1827 -1.4411 35.5288 -1 32 C 2.1325 27.8541 4.9674 26.098 10 25 C 13.9947 24.5601 17.989 24.2466 22 24 C 19.5973 18.5585 15.4379 15.166 10.125 12.625 C 0.0659 10.6132 -8.7713 12.5122 -15.5 20.8125 Z M 0.9375 30.6875 C -0.5145 34.2691 -0.1219 37.4058 1 41 C 4.2131 46.0086 7.3353 48.242 13 50 C 16.5864 50.9172 16.5864 50.9172 20 50 C 24.0888 45.8269 25.8984 40.7933 26 35 C 25.5012 31.9486 24.8179 28.9808 24 26 C 11.6864 25.354 11.6864 25.354 0.9375 30.6875 Z M -25 49 C -25.0409 51.333 -25.0424 53.6671 -25 56 C -23.8275 55.0488 -22.6621 54.0888 -21.5 53.125 C -20.8503 52.5913 -20.2006 52.0577 -19.5313 51.5078 C -18.7733 50.7614 -18.7733 50.7614 -18 50 C -18 49.34 -18 48.68 -18 48 C -21.8062 47.5615 -21.8062 47.5615 -25 49 Z M -18 51 C -19.2183 54.6549 -18.3333 55.5101 -16.7578 58.8242 C -15.5299 62.3496 -15.529 65.937 -15.4063 69.6445 C -15.2722 70.4218 -15.1381 71.1991 -15 72 C -14.01 72.66 -13.02 73.32 -12 74 C -11.595 66.9504 -12.0917 60.5228 -15 54 C -16.5099 52.2485 -16.5099 52.2485 -18 51 Z M 18.457 53.125 C 16.4006 55.7714 16.6347 57.6877 16.6875 61 C 16.6914 62.0519 16.6952 63.1037 16.6992 64.1875 C 16.8024 67.2053 16.8024 67.2053 19 70 C 21.1193 67.8807 20.4183 63.3804 20.5625 60.4375 C 20.6057 59.6312 20.6489 58.8249 20.6934 57.9941 C 20.7998 55.9963 20.9004 53.9982 21 52 C 19.8164 51.9018 19.8164 51.9018 18.457 53.125 Z M 23 52 C 21.6985 54.603 21.9028 56.5342 21.9375 59.4375 C 21.9465 60.4056 21.9555 61.3737 21.9648 62.3711 C 21.9764 63.2386 21.988 64.1062 22 65 C 22 69.0287 20.2966 70.7578 18 74 C 17.34 74.99 16.68 75.98 16 77 C 16.3506 77.5362 16.7013 78.0725 17.0625 78.625 C 18 81 18 81 17.4375 84 C 16.6544 87.0157 16.6544 87.0157 18.4727 89.1875 C 18.9767 89.7856 19.4807 90.3838 20 91 C 25.231 87.3053 30.0616 83.8768 33 78 C 33.9132 68.2695 32.3504 62.0474 26.3125 54.5 C 25.5494 53.675 24.7862 52.85 24 52 C 23.67 52 23.34 52 23 52 Z M -21 55 C -26.3758 60.3758 -29.1434 68.2867 -29.5 75.8125 C -29.268 80.1435 -27.9015 82.7168 -25 86 C -19.1055 91.0319 -11.6471 92.7105 -4.0625 93.3125 C -1.1442 93.0147 0.602 92.6601 3 91 C 4.4144 88.1712 4.319 86.1262 4 83 C 1.0398 80.18 -2.0647 79.2004 -5.9375 78.0625 C -14.6387 75.2046 -14.6387 75.2046 -17 72 C -17.2027 69.4838 -17.1184 67.0705 -16.9766 64.5508 C -17.0113 60.7753 -18.2701 58.3156 -20 55 C -20.33 55 -20.66 55 -21 55 Z M -12 55 C -11.34 61.6 -10.68 68.2 -10 75 C -3.6565 78.2626 -3.6565 78.2626 1 78 C 0.34 76.02 -0.32 74.04 -1 72 C -0.34 72 0.32 72 1 72 C 3 77.75 3 77.75 3 80 C 4.4 79.5974 5.7948 79.1771 7.1875 78.75 C 7.9648 78.518 8.7421 78.2859 9.543 78.0469 C 12.7071 76.6987 14.6851 75.5833 17 73 C 17.0396 69.967 16.8624 67.6727 16.3125 64.75 C 16.1946 64.0049 16.0766 63.2598 15.9551 62.4922 C 15.661 60.6574 15.3337 58.828 15 57 C 13.749 57.2514 13.749 57.2514 12.4727 57.5078 C 2.8711 59.2456 -3.0463 58.5815 -12 55 Z M 14 88 C 14.33 89.65 14.66 91.3 15 93 C 15.66 92.67 16.32 92.34 17 92 C 16.67 90.68 16.34 89.36 16 88 C 15.34 88 14.68 88 14 88 Z M 3.0625 91.5 C 2.7119 91.995 2.3613 92.49 2 93 C 2.33 93.99 2.66 94.98 3 96 C 7.455 95.505 7.455 95.505 12 95 C 12.33 93.68 12.66 92.36 13 91 C 11.8362 89.6186 11.8362 89.6186 8.625 89.75 C 5.0715 89.6574 5.0715 89.6574 3.0625 91.5 Z M -18 92 C -18.4052 98.3308 -18.7317 104.6619 -19 111 C -19.0422 111.9505 -19.0844 112.901 -19.1279 113.8804 C -19.2402 116.7119 -19.3131 119.5419 -19.375 122.375 C -19.413 123.2595 -19.4511 124.1441 -19.4902 125.0554 C -19.5492 129.5464 -19.4514 131.4004 -16.668 135.0977 C -14.1303 137.2852 -14.1303 137.2852 -10.9375 137.0625 C -7.5785 135.8475 -6.2504 134.7503 -4 132 C -3.185 129.2189 -3.185 129.2189 -2.9531 126.1406 C -2.8307 125.0256 -2.7082 123.9105 -2.582 122.7617 C -2.4177 121.0234 -2.4177 121.0234 -2.25 119.25 C -2.0624 117.4885 -2.0624 117.4885 -1.8711 115.6914 C -1.565 112.7955 -1.2753 109.8989 -1 107 C 0.65 106.67 2.3 106.34 4 106 C 5.733 109.0503 6.3418 111.5467 6.6758 115.0273 C 6.7821 115.9845 6.8885 116.9416 6.998 117.9277 C 7.2072 119.9292 7.4051 121.9319 7.5918 123.9355 C 8.1332 128.6431 8.4999 131.3397 11.4141 135.1875 C 13.8919 137.2823 13.8919 137.2823 17.0625 137.0625 C 20.4276 135.8453 21.7898 134.7963 24 132 C 24.4751 129.1026 24.4751 129.1026 24.207 125.9063 C 24.1535 124.71 24.1 123.5138 24.0449 122.2813 C 23.9682 121.0334 23.8915 119.7856 23.8125 118.5 C 23.7551 117.2831 23.6978 116.0662 23.6387 114.8125 C 23.2602 107.1941 22.683 99.5967 22 92 C 21.1428 92.3609 20.2855 92.7219 19.4023 93.0938 C 7.6227 97.8746 7.6227 97.8746 2 97 C 1.34 96.34 0.68 95.68 0 95 C -2.2774 94.5634 -4.5737 94.2222 -6.875 93.9375 C -14.6224 92.959 -14.6224 92.959 -18 92 Z M 1 107 C -0.9734 112.0218 -1.4086 116.5558 -1.625 121.875 C -1.6637 122.6587 -1.7023 123.4425 -1.7422 124.25 C -1.8357 126.1663 -1.9189 128.0831 -2 130 C 0.97 130 3.94 130 7 130 C 6.7172 127.103 6.4241 124.2078 6.125 121.3125 C 6.0464 120.4959 5.9677 119.6793 5.8867 118.8379 C 5.4379 114.5737 4.8956 110.9106 3 107 C 2.34 107 1.68 107 1 107 Z" stroke-linecap="round" />
</g>
<g transform="matrix(5.9735 0 0 5.9735 322.8775 761.9532)"  >
<path style="stroke: none; stroke-width: 1; stroke-dasharray: none; stroke-linecap: butt; stroke-dashoffset: 0; stroke-linejoin: miter; stroke-miterlimit: 4; fill: rgb(162,0,183); fill-rule: nonzero; opacity: 1;"  transform=" translate(25.5, -31.5623)" d="M 0 0 C 1.9375 0.625 1.9375 0.625 4 2 C 4.9918 5.5859 5.1843 7.4471 4 11 C 4.99 12.485 4.99 12.485 6 14 C 6.99 13.67 7.98 13.34 9 13 C 10.7699 14.7699 10.3609 17.3583 10.5352 19.7656 C 10.6222 20.967 10.7092 22.1684 10.7988 23.4063 C 10.8858 24.6747 10.9729 25.9431 11.0625 27.25 C 11.1988 29.083 11.1988 29.083 11.3379 30.9531 C 11.9035 38.9827 12.1141 46.9516 12 55 C 12.8245 55.1438 13.649 55.2876 14.4985 55.4358 C 22.75 56.875 22.75 56.875 25 58 C 24 61 24 61 22 62 C 20.0976 62.1302 18.1909 62.1982 16.2844 62.2371 C 15.0859 62.2635 13.8874 62.2899 12.6525 62.3171 C 11.3505 62.34 10.0485 62.363 8.707 62.3867 C 7.359 62.4124 6.011 62.4382 4.663 62.4641 C 1.8326 62.5171 -0.9978 62.566 -3.8284 62.6125 C -7.442 62.6727 -11.0552 62.747 -14.6685 62.8249 C -17.4557 62.8828 -20.2431 62.931 -23.0306 62.9765 C -25.0065 63.0111 -26.9822 63.0553 -28.9578 63.0998 C -35.0379 63.1846 -40.2838 63.1738 -46 61 C -46 59.68 -46 58.36 -46 57 C -42.7 56.34 -39.4 55.68 -36 55 C -35.9394 53.3255 -35.8788 51.651 -35.8164 49.9258 C -35.732 47.7213 -35.6473 45.5169 -35.5625 43.3125 C -35.5232 42.2097 -35.4839 41.1069 -35.4434 39.9707 C -35.3805 38.3707 -35.3805 38.3707 -35.3164 36.7383 C -35.2797 35.759 -35.2431 34.7797 -35.2053 33.7708 C -35.0078 31.1053 -34.5843 28.6053 -34 26 C -48.724 27.0409 -48.724 27.0409 -61.4375 34 C -63.951 38.8259 -63.7625 43.5975 -64 49 C -67.96 49 -71.92 49 -76 49 C -76 48.34 -76 47.68 -76 47 C -71.545 46.505 -71.545 46.505 -67 46 C -66.9175 44.6388 -66.835 43.2775 -66.75 41.875 C -66.0949 36.0792 -63.8404 32.6988 -59.5625 28.75 C -51.774 23.431 -43.0909 23.852 -34 24 C -34 21.36 -34 18.72 -34 16 C -33.34 16.33 -32.68 16.66 -32 17 C -32.0209 18.1605 -32.0419 19.321 -32.0635 20.5166 C -32.1359 24.8252 -32.1818 29.1338 -32.2197 33.4429 C -32.2398 35.3072 -32.2671 37.1715 -32.3018 39.0356 C -32.3503 41.7166 -32.373 44.3968 -32.3906 47.0781 C -32.4113 47.9106 -32.4319 48.743 -32.4532 49.6006 C -32.4547 53.4379 -32.4491 55.3723 -30.167 58.5615 C -28.0081 60.2912 -28.0081 60.2912 -24.9375 59.9375 C -21.8753 58.9602 -20.9059 58.4976 -19 56 C -18.3448 53.3346 -18.3448 53.3346 -18.1211 50.3086 C -18.0044 49.1994 -17.8878 48.0901 -17.7676 46.9473 C -17.6042 45.2099 -17.6042 45.2099 -17.4375 43.4375 C -17.2149 41.1438 -16.9848 38.8507 -16.7461 36.5586 C -16.6019 35.0319 -16.6019 35.0319 -16.4548 33.4744 C -16 31 -16 31 -14 29 C -11.5 29.125 -11.5 29.125 -9 30 C -7.1146 32.9477 -6.6424 35.6166 -6.2891 39.0625 C -6.1782 40.0241 -6.0673 40.9858 -5.9531 41.9766 C -5.7345 43.9914 -5.5235 46.007 -5.3203 48.0234 C -4.6893 53.692 -4.6893 53.692 -2.1641 58.7031 C 0.3658 60.2192 1.3914 60.3217 4.25 59.75 C 5.4875 59.5025 6.725 59.255 8 59 C 9.1029 55.6913 9.0444 53.444 8.9141 49.9688 C 8.8702 48.7648 8.8264 47.5608 8.7813 46.3203 C 8.7297 45.0596 8.6781 43.7989 8.625 42.5 C 8.5812 41.2702 8.5373 40.0405 8.4922 38.7734 C 8.2138 31.4883 7.7524 24.2517 7 17 C 5.68 17.33 4.36 17.66 3 18 C 2.4465 15.9245 2 14.1563 2 12 C 1.34 12 0.68 12 0 12 C -0.33 12.99 -0.66 13.98 -1 15 C -8.875 14.125 -8.875 14.125 -10 13 C -10.4651 7.6512 -10.4651 7.6512 -8.75 5.25 C -5.7143 3.0816 -3.7885 2 0 2 C 0 1.34 0 0.68 0 0 Z M -13 31 C -14.9734 36.0218 -15.4086 40.5558 -15.625 45.875 C -15.6637 46.6587 -15.7023 47.4425 -15.7422 48.25 C -15.8357 50.1663 -15.9189 52.0831 -16 54 C -13.03 54 -10.06 54 -7 54 C -7.2828 51.103 -7.5759 48.2078 -7.875 45.3125 C -7.9536 44.4959 -8.0323 43.6793 -8.1133 42.8379 C -8.5621 38.5737 -9.1044 34.9106 -11 31 C -11.66 31 -12.32 31 -13 31 Z" stroke-linecap="round" />
</g>
<g transform="matrix(5.9735 0 0 5.9735 896.3311 501.4759)"  >
<path style="stroke: none; stroke-width: 1; stroke-dasharray: none; stroke-linecap: butt; stroke-dashoffset: 0; stroke-linejoin: miter; stroke-miterlimit: 4; fill: rgb(162,0,183); fill-rule: nonzero; opacity: 1;"  transform=" translate(14.5, -60.9568)" d="M 0 0 C 2.3096 3.2606 2.1388 6.0537 1.5586 9.9219 C 0.9707 12.1091 0.1447 13.6551 -1.0625 15.5625 C -3.3101 18.8513 -3.3101 18.8513 -2.875 22.5 C -3.0521 27.4582 -5.5689 29.6403 -9 33 C -9.66 32.34 -10.32 31.68 -11 31 C -11 29.68 -11 28.36 -11 27 C -14.2207 27.2906 -15.6095 27.5473 -17.761 30.0413 C -18.2794 30.9158 -18.7979 31.7904 -19.332 32.6914 C -19.9024 33.6356 -20.4729 34.5799 -21.0605 35.5527 C -21.6387 36.546 -22.2168 37.5392 -22.8125 38.5625 C -23.41 39.5596 -24.0075 40.5567 -24.623 41.584 C -26.0966 44.0478 -27.5547 46.5195 -29 49 C -28.1897 49.4347 -27.3793 49.8695 -26.5444 50.3174 C -24 52 -24 52 -23.2891 54.9219 C -23.7323 60.9012 -27.4789 66.1665 -30.375 71.25 C -30.9783 72.338 -31.5816 73.4259 -32.2031 74.5469 C -34.3726 78.4423 -36.5261 82.2891 -39 86 C -37.7876 85.8395 -37.7876 85.8395 -36.5508 85.6758 C -35.4821 85.5559 -34.4135 85.436 -33.3125 85.3125 C -32.2568 85.1849 -31.201 85.0573 -30.1133 84.9258 C -26.4945 85.0121 -24.8568 85.8329 -22 88 C -20.7973 90.4055 -20.8993 91.95 -20.9375 94.625 C -20.9465 95.4423 -20.9555 96.2595 -20.9648 97.1016 C -20.9764 97.728 -20.988 98.3545 -21 99 C -20.215 98.7602 -19.4299 98.5205 -18.6211 98.2734 C -7.9794 95.2703 -7.9794 95.2703 -2 98 C 0.5527 100.5527 0.2977 101.5833 0.3125 105.125 C 0.2361 110.3974 -0.8358 114.2207 -3 119 C 2.28 119.33 7.56 119.66 13 120 C 13 120.66 13 121.32 13 122 C 7.06 122 1.12 122 -5 122 C -6.251 118.247 -5.1439 116.8567 -3.7031 113.3398 C -2.4827 109.2786 -2.7678 105.1972 -3 101 C -6.6618 99.1691 -10.9852 99.7273 -15 100 C -17.7857 100.9126 -17.7857 100.9126 -20 102 C -21.32 102 -22.64 102 -24 102 C -23.9884 101.3129 -23.9768 100.6259 -23.9648 99.918 C -23.9558 99.0169 -23.9468 98.1159 -23.9375 97.1875 C -23.9259 96.2942 -23.9143 95.4009 -23.9023 94.4805 C -23.8899 91.8659 -23.8899 91.8659 -25 89 C -30.8685 87.8518 -36.0885 88.2269 -42 89 C -41.4189 85.3333 -40.4228 82.575 -38.6016 79.3477 C -37.8823 78.0589 -37.8823 78.0589 -37.1484 76.7441 C -36.6457 75.8592 -36.143 74.9743 -35.625 74.0625 C -29.1532 64.1344 -29.1532 64.1344 -27 53 C -28.98 52.67 -30.96 52.34 -33 52 C -31.2851 47.0806 -28.6147 42.8131 -25.9375 38.375 C -25.0273 36.8636 -24.1197 35.3506 -23.2148 33.8359 C -22.6134 32.8389 -22.6134 32.8389 -21.9998 31.8218 C -20.856 29.8665 -20.856 29.8665 -20 27 C -25.28 32.28 -30.56 37.56 -36 43 C -36.66 42.34 -37.32 41.68 -38 41 C -37.485 40.5007 -36.97 40.0015 -36.4395 39.4871 C -34.1185 37.2284 -31.8092 34.9582 -29.5 32.6875 C -28.2838 31.509 -28.2838 31.509 -27.043 30.3066 C -26.276 29.5493 -25.509 28.792 -24.7188 28.0117 C -24.0065 27.3152 -23.2943 26.6187 -22.5605 25.9011 C -20.6828 24.0235 -20.6828 24.0235 -21 21 C -23.31 20.67 -25.62 20.34 -28 20 C -26.7292 14.5356 -24.6019 12.1582 -20 9 C -19.175 8.8763 -18.35 8.7525 -17.5 8.625 C -13.9207 7.7302 -12.606 5.4642 -10.4297 2.5938 C -7.5491 -0.6174 -4.0125 -0.0892 0 0 Z" stroke-linecap="round" />
</g>
<g transform="matrix(5.9735 0 0 5.9735 191.4615 809.1489)"  >
<path style="stroke: none; stroke-width: 1; stroke-dasharray: none; stroke-linecap: butt; stroke-dashoffset: 0; stroke-linejoin: miter; stroke-miterlimit: 4; fill: rgb(162,0,183); fill-rule: nonzero; opacity: 1;"  transform=" translate(13.5, -23.4632)" d="M 0 0 C 0.66 0.33 1.32 0.66 2 1 C 1.9791 2.1605 1.9581 3.321 1.9365 4.5166 C 1.8641 8.8252 1.8182 13.1338 1.7803 17.4429 C 1.7602 19.3072 1.7329 21.1715 1.6982 23.0356 C 1.6497 25.7166 1.627 28.3968 1.6094 31.0781 C 1.5887 31.9106 1.5681 32.743 1.5468 33.6006 C 1.5453 37.4405 1.5539 39.3748 3.833 42.5693 C 5.9948 44.3082 5.9948 44.3082 9.0625 43.8125 C 11.0569 43.2608 13.0369 42.6544 15 42 C 14.34 43.32 13.68 44.64 13 46 C 10.1463 46.2235 7.2931 46.4291 4.4375 46.625 C 3.2377 46.7217 3.2377 46.7217 2.0137 46.8203 C -3.1643 47.1585 -7.0979 46.7239 -12 45 C -12 43.68 -12 42.36 -12 41 C -8.7 40.34 -5.4 39.68 -2 39 C -1.9394 37.3255 -1.8788 35.651 -1.8164 33.9258 C -1.732 31.7213 -1.6473 29.5169 -1.5625 27.3125 C -1.5232 26.2097 -1.4839 25.1069 -1.4434 23.9707 C -1.3805 22.3707 -1.3805 22.3707 -1.3164 20.7383 C -1.2797 19.759 -1.2431 18.7797 -1.2053 17.7708 C -1.0078 15.1053 -0.5843 12.6053 0 10 C -14.724 11.0409 -14.724 11.0409 -27.4375 18 C -29.951 22.8259 -29.7625 27.5975 -30 33 C -33.96 33 -37.92 33 -42 33 C -42 32.34 -42 31.68 -42 31 C -39.03 30.67 -36.06 30.34 -33 30 C -32.9175 28.6388 -32.835 27.2775 -32.75 25.875 C -32.0949 20.0792 -29.8404 16.6988 -25.5625 12.75 C -17.774 7.431 -9.0909 7.852 0 8 C 0 5.36 0 2.72 0 0 Z" stroke-linecap="round" />
</g>
<g transform="matrix(5.9735 0 0 5.9735 906.7849 217.7619)"  >
<path style="stroke: none; stroke-width: 1; stroke-dasharray: none; stroke-linecap: butt; stroke-dashoffset: 0; stroke-linejoin: miter; stroke-miterlimit: 4; fill: rgb(162,0,183); fill-rule: nonzero; opacity: 1;"  transform=" translate(11.75, -11.461)" d="M 0 0 C 1 1 1 1 1.5 3.875 C 1.4554 11.0507 -4.8473 17.544 -9 23 C -12.3854 21.9047 -14.2777 20.757 -17 18.375 C -19.7439 15.7697 -19.7439 15.7697 -22.875 15.6875 C -23.5763 15.7906 -24.2775 15.8938 -25 16 C -23.1959 12.7354 -22.1661 11.1107 -19 9 C -16.8125 9.375 -16.8125 9.375 -15 10 C -14.5295 9.3619 -14.059 8.7238 -13.5742 8.0664 C -12.9516 7.2401 -12.329 6.4138 -11.6875 5.5625 C -11.0726 4.7388 -10.4577 3.9151 -9.8242 3.0664 C -6.9443 -0.1958 -4.1448 -0.2181 0 0 Z" stroke-linecap="round" />
</g>
<g transform="matrix(5.9735 0 0 5.9735 905.0813 235.6573)"  >
<path style="stroke: none; stroke-width: 1; stroke-dasharray: none; stroke-linecap: butt; stroke-dashoffset: 0; stroke-linejoin: miter; stroke-miterlimit: 4; fill: rgb(162,0,183); fill-rule: nonzero; opacity: 1;"  transform=" translate(13.0352, -16.4568)" d="M 0 0 C 2.3096 3.2606 2.1388 6.0537 1.5586 9.9219 C 0.9707 12.1091 0.1447 13.6551 -1.0625 15.5625 C -3.3101 18.8513 -3.3101 18.8513 -2.875 22.5 C -3.0521 27.4582 -5.5689 29.6403 -9 33 C -9.66 32.34 -10.32 31.68 -11 31 C -11 29.68 -11 28.36 -11 27 C -11.9075 26.7525 -12.815 26.505 -13.75 26.25 C -17 25 -17 25 -18.9375 22.9375 C -21.7641 20.2822 -24.2194 20.2908 -28 20 C -26.7292 14.5356 -24.6019 12.1582 -20 9 C -19.175 8.8763 -18.35 8.7525 -17.5 8.625 C -13.9207 7.7302 -12.606 5.4642 -10.4297 2.5938 C -7.5491 -0.6174 -4.0125 -0.0892 0 0 Z M -11 5 C -12.8297 7.2559 -14.3952 9.5699 -16 12 C -16.6046 11.7989 -17.2091 11.5978 -17.832 11.3906 C -20.2184 10.7049 -20.2184 10.7049 -22.6875 12.75 C -25.2077 14.8574 -25.2077 14.8574 -26 18 C -24.9056 17.8898 -24.9056 17.8898 -23.7891 17.7773 C -20.2454 18.0602 -19.0176 19.2422 -16.375 21.5625 C -14.1864 23.5571 -14.1864 23.5571 -12 25 C -7.8944 23.6315 -6.5543 20.8575 -4.3125 17.375 C -3.6889 16.4681 -3.6889 16.4681 -3.0527 15.543 C -0.2711 11.2587 0.5612 8.2422 0 3 C -1.0325 1.7592 -1.0325 1.7592 -3.25 1.75 C -6.7207 2.0655 -8.2388 2.86 -11 5 Z" stroke-linecap="round" />
</g>
<g transform="matrix(5.9735 0 0 5.9735 468.3868 259.8093)"  >
<path style="stroke: none; stroke-width: 1; stroke-dasharray: none; stroke-linecap: butt; stroke-dashoffset: 0; stroke-linejoin: miter; stroke-miterlimit: 4; fill: rgb(162,0,183); fill-rule: nonzero; opacity: 1;"  transform=" translate(-12.8591, -23.5)" d="M 0 0 C 3.125 0.375 3.125 0.375 6 1 C 6.6875 3.3125 6.6875 3.3125 7 6 C 5.5195 7.668 5.5195 7.668 4 9 C 4.6291 9.147 5.2581 9.2939 5.9063 9.4453 C 14.1907 11.6162 20.3394 14.8142 24.9375 22.25 C 28.3412 29.1382 28.7254 35.2878 26.5625 42.625 C 26.06 44.0897 25.5458 45.5508 25 47 C 24.34 46.67 23.68 46.34 23 46 C 23.156 45.3104 23.312 44.6207 23.4727 43.9102 C 24.7914 37.5436 25.0519 32.4164 24 26 C 20.04 26 16.08 26 12 26 C 12.33 25.34 12.66 24.68 13 24 C 15.97 24 18.94 24 22 24 C 17.0469 17.4836 12.9605 13.8485 4.75 12.6797 C 3.6672 12.5598 3.6672 12.5598 2.5625 12.4375 C 1.3869 12.2931 0.2112 12.1487 -1 12 C -1.33 11.34 -1.66 10.68 -2 10 C -1.34 9.67 -0.68 9.34 0 9 C -0.66 8.34 -1.32 7.68 -2 7 C -2.25 4.5 -2.25 4.5 -2 2 C -1.34 1.34 -0.68 0.68 0 0 Z" stroke-linecap="round" />
</g>
<g transform="matrix(5.9735 0 0 5.9735 902.3046 755.5828)"  >
<path style="stroke: none; stroke-width: 1; stroke-dasharray: none; stroke-linecap: butt; stroke-dashoffset: 0; stroke-linejoin: miter; stroke-miterlimit: 4; fill: rgb(162,0,183); fill-rule: nonzero; opacity: 1;"  transform=" translate(-10.5, -17.4957)" d="M 0 0 C 2.0625 1.5 2.0625 1.5 3 4 C 3.2186 7.0186 3.1742 9.9802 3 13 C 4.1776 12.6404 4.1776 12.6404 5.3789 12.2734 C 16.0206 9.2703 16.0206 9.2703 22 12 C 24.5527 14.5527 24.2977 15.5833 24.3125 19.125 C 24.2361 24.3974 23.1642 28.2207 21 33 C 26.28 33.33 31.56 33.66 37 34 C 37 34.66 37 35.32 37 36 C 31.06 36 25.12 36 19 36 C 17.749 32.247 18.8561 30.8567 20.2969 27.3398 C 21.5173 23.2786 21.2322 19.1972 21 15 C 17.3382 13.1691 13.0148 13.7273 9 14 C 6.2143 14.9126 6.2143 14.9126 4 16 C 2.68 16 1.36 16 0 16 C 0.0116 15.3129 0.0232 14.6259 0.0352 13.918 C 0.0442 13.0169 0.0532 12.1159 0.0625 11.1875 C 0.0741 10.2942 0.0857 9.4009 0.0977 8.4805 C 0.1101 5.8659 0.1101 5.8659 -1 3 C -6.3463 1.9976 -10.6237 2.1511 -16 3 C -11.6422 -2.0114 -6.0739 -1.4379 0 0 Z" stroke-linecap="round" />
</g>
<g transform="matrix(5.9735 0 0 5.9735 373.6526 528.6158)"  >
<path style="stroke: none; stroke-width: 1; stroke-dasharray: none; stroke-linecap: butt; stroke-dashoffset: 0; stroke-linejoin: miter; stroke-miterlimit: 4; fill: rgb(162,0,183); fill-rule: nonzero; opacity: 1;"  transform=" translate(-16, -14.5)" d="M 0 0 C 3.9962 5.0387 4.2591 9.3465 4.7188 15.6016 C 4.7429 17.9495 4.7429 17.9495 6 19 C 6.2019 12.6401 5.6278 7.1478 4 1 C 4.99 1 5.98 1 7 1 C 8.9161 7.6425 9.5637 14.1106 10 21 C 13.3 21.99 16.6 22.98 20 24 C 19.34 23.01 18.68 22.02 18 21 C 18 20.01 18 19.02 18 18 C 18.66 18 19.32 18 20 18 C 21.6875 19.75 21.6875 19.75 23 22 C 22.582 24.1406 22.582 24.1406 22 26 C 22.6265 25.7112 23.253 25.4225 23.8984 25.125 C 24.7157 24.7538 25.533 24.3825 26.375 24 C 27.1871 23.6288 27.9992 23.2575 28.8359 22.875 C 31 22 31 22 33 22 C 33 22.66 33 23.32 33 24 C 28.545 25.485 28.545 25.485 24 27 C 24 27.66 24 28.32 24 29 C 3.6034 22.4967 3.6034 22.4967 1 18 C 0.8244 15.494 0.8807 13.0601 0.9922 10.5508 C 1.003 7.0366 0.1486 4.3023 -1 1 C -0.67 0.67 -0.34 0.34 0 0 Z" stroke-linecap="round" />
</g>
<g transform="matrix(5.9735 0 0 5.9735 459.6411 618.2179)"  >
<path style="stroke: none; stroke-width: 1; stroke-dasharray: none; stroke-linecap: butt; stroke-dashoffset: 0; stroke-linejoin: miter; stroke-miterlimit: 4; fill: rgb(162,0,183); fill-rule: nonzero; opacity: 1;"  transform=" translate(2.605, -7.5)" d="M 0 0 C 1.9375 0.625 1.9375 0.625 4 2 C 5.4054 7.1892 5.4054 7.1892 4 10 C 3.34 10 2.68 10 2 10 C 0.3553 12.4633 0.3553 12.4633 -1 15 C -8.875 14.125 -8.875 14.125 -10 13 C -10.4651 7.6512 -10.4651 7.6512 -8.75 5.25 C -5.7143 3.0816 -3.7885 2 0 2 C 0 1.34 0 0.68 0 0 Z" stroke-linecap="round" />
</g>
<g transform="matrix(5.9735 0 0 5.9735 403.6041 833.2627)"  >
<path style="stroke: none; stroke-width: 1; stroke-dasharray: none; stroke-linecap: butt; stroke-dashoffset: 0; stroke-linejoin: miter; stroke-miterlimit: 4; fill: rgb(162,0,183); fill-rule: nonzero; opacity: 1;"  transform=" translate(-2.014, -14.5)" d="M 0 0 C 2.5 0.125 2.5 0.125 5 1 C 6.7705 3.807 7.323 6.2717 7.6328 9.5469 C 7.7166 10.3912 7.8004 11.2355 7.8867 12.1055 C 7.9654 12.9782 8.044 13.8509 8.125 14.75 C 8.2114 15.6382 8.2977 16.5263 8.3867 17.4414 C 8.5982 19.627 8.8024 21.8131 9 24 C 8.34 24 7.68 24 7 24 C 5.3756 17.0384 4.1228 10.0591 3 3 C 2.34 3 1.68 3 1 3 C 0.9196 3.6455 0.8392 4.291 0.7563 4.9561 C 0.3868 7.8884 0.006 10.8191 -0.375 13.75 C -0.5013 14.7658 -0.6277 15.7816 -0.7578 16.8281 C -0.8867 17.8078 -1.0156 18.7875 -1.1484 19.7969 C -1.2636 20.6976 -1.3789 21.5983 -1.4976 22.5264 C -1.9971 24.9858 -2.7703 26.8248 -4 29 C -6.0918 24.8163 -4.239 19.0166 -3.6875 14.5 C -3.5567 13.3334 -3.4258 12.1668 -3.291 10.9648 C -3.1576 9.8524 -3.0242 8.7399 -2.8867 7.5938 C -2.7651 6.5696 -2.6436 5.5454 -2.5183 4.4902 C -2 2 -2 2 0 0 Z" stroke-linecap="round" />
</g>
<g transform="matrix(5.9735 0 0 5.9735 403.5201 918.8808)"  >
<path style="stroke: none; stroke-width: 1; stroke-dasharray: none; stroke-linecap: butt; stroke-dashoffset: 0; stroke-linejoin: miter; stroke-miterlimit: 4; fill: rgb(162,0,183); fill-rule: nonzero; opacity: 1;"  transform=" translate(-5, -3.8331)" d="M 0 0 C 3.4002 -0.3504 6.6134 -0.5308 10 0 C 14 4.381 14 4.381 14 8 C 8.06 8 2.12 8 -4 8 C -2.68 5.36 -1.36 2.72 0 0 Z" stroke-linecap="round" />
</g>
<g transform="matrix(5.9735 0 0 5.9735 1005.2159 791.4484)"  >
<path style="stroke: none; stroke-width: 1; stroke-dasharray: none; stroke-linecap: butt; stroke-dashoffset: 0; stroke-linejoin: miter; stroke-miterlimit: 4; fill: rgb(162,0,183); fill-rule: nonzero; opacity: 1;"  transform=" translate(-8.728, -12.5)" d="M 0 0 C 2.5 0.8125 2.5 0.8125 5 3 C 6.2668 9.8542 4.8205 15.7714 2 22 C 7.28 22.33 12.56 22.66 18 23 C 18 23.66 18 24.32 18 25 C 12.06 25 6.12 25 0 25 C -1.251 21.247 -0.1439 19.8567 1.2969 16.3398 C 2.5173 12.2786 2.2322 8.1972 2 4 C 1.34 3.67 0.68 3.34 0 3 C 0 2.01 0 1.02 0 0 Z" stroke-linecap="round" />
</g>
<g transform="matrix(5.9735 0 0 5.9735 573.7641 923.5534)"  >
<path style="stroke: none; stroke-width: 1; stroke-dasharray: none; stroke-linecap: butt; stroke-dashoffset: 0; stroke-linejoin: miter; stroke-miterlimit: 4; fill: rgb(162,0,183); fill-rule: nonzero; opacity: 1;"  transform=" translate(-5.5, -3.6152)" d="M 0 0 C 1.959 0.3085 3.9172 0.6219 5.875 0.9375 C 7.5108 1.1985 7.5108 1.1985 9.1797 1.4648 C 12 2 12 2 14 3 C 13 6 13 6 11 7 C 9.0027 7.122 7.0009 7.1755 5 7.1875 C 3.9275 7.2017 2.855 7.2159 1.75 7.2305 C -1 7 -1 7 -3 5 C -2.01 3.35 -1.02 1.7 0 0 Z" stroke-linecap="round" />
</g>
<g transform="matrix(5.9735 0 0 5.9735 887.3712 277.7301)"  >
<path style="stroke: none; stroke-width: 1; stroke-dasharray: none; stroke-linecap: butt; stroke-dashoffset: 0; stroke-linejoin: miter; stroke-miterlimit: 4; fill: rgb(162,0,183); fill-rule: nonzero; opacity: 1;"  transform=" translate(-5, -6.5)" d="M 0 0 C 0.33 0.66 0.66 1.32 1 2 C 2.3241 2.6849 3.6591 3.3487 5 4 C 5.6394 4.5775 6.2787 5.155 6.9375 5.75 C 7.6181 6.1625 8.2988 6.575 9 7 C 11.7148 6.4309 11.7148 6.4309 14 5 C 14.33 4.34 14.66 3.68 15 3 C 15.66 3 16.32 3 17 3 C 16.3917 9.4481 16.3917 9.4481 14.625 11.9375 C 13 13 13 13 10 13 C 10 12.01 10 11.02 10 10 C 9.0925 9.7525 8.185 9.505 7.25 9.25 C 4 8 4 8 2.0625 5.9375 C -0.7641 3.2822 -3.2194 3.2908 -7 3 C -4.6405 0.6405 -3.221 0.5086 0 0 Z" stroke-linecap="round" />
</g>
<g transform="matrix(5.9735 0 0 5.9735 408.9336 155.5656)"  >
<path style="stroke: none; stroke-width: 1; stroke-dasharray: none; stroke-linecap: butt; stroke-dashoffset: 0; stroke-linejoin: miter; stroke-miterlimit: 4; fill: rgb(162,0,183); fill-rule: nonzero; opacity: 1;"  transform=" translate(-2.9063, -6.0488)" d="M 0 0 C 3.125 0.375 3.125 0.375 6 1 C 6.6875 3.3125 6.6875 3.3125 7 6 C 5.5625 7.8125 5.5625 7.8125 4 9 C 5.32 9.66 6.64 10.32 8 11 C 7 12 7 12 5.1523 12.0977 C 3.1016 12.0651 1.0508 12.0326 -1 12 C -1.33 11.34 -1.66 10.68 -2 10 C -1.34 9.67 -0.68 9.34 0 9 C -0.66 8.34 -1.32 7.68 -2 7 C -2.25 4.5 -2.25 4.5 -2 2 C -1.34 1.34 -0.68 0.68 0 0 Z" stroke-linecap="round" />
</g>
<g transform="matrix(5.9735 0 0 5.9735 248.2099 926.6073)"  >
<path style="stroke: none; stroke-width: 1; stroke-dasharray: none; stroke-linecap: butt; stroke-dashoffset: 0; stroke-linejoin: miter; stroke-miterlimit: 4; fill: rgb(162,0,183); fill-rule: nonzero; opacity: 1;"  transform=" translate(4, -3.1265)" d="M 0 0 C 2.5 3 2.5 3 4 6 C -1.9635 7.0007 -6.2873 7.0663 -12 5 C -12 3.68 -12 2.36 -12 1 C -8.174 -0.2753 -3.9571 -0.9001 0 0 Z" stroke-linecap="round" />
</g>
<g transform="matrix(5.9735 0 0 5.9735 241.1164 567.4432)"  >
<path style="stroke: none; stroke-width: 1; stroke-dasharray: none; stroke-linecap: butt; stroke-dashoffset: 0; stroke-linejoin: miter; stroke-miterlimit: 4; fill: rgb(162,0,183); fill-rule: nonzero; opacity: 1;"  transform=" translate(-1.8125, -16)" d="M 0 0 C 0.66 0.33 1.32 0.66 2 1 C 1.7834 1.6896 1.5669 2.3793 1.3438 3.0898 C -0.7267 10.0775 -2.6777 16.8058 0.125 23.8125 C 2.4326 26.5047 4.9715 28.1829 8 30 C 7.01 30.66 6.02 31.32 5 32 C 3.868 31.092 2.7447 30.1732 1.625 29.25 C 0.9985 28.7395 0.372 28.2291 -0.2734 27.7031 C -3.577 24.4444 -4.3077 21.5085 -4.375 16.9375 C -4.2917 10.7577 -2.4357 5.6217 0 0 Z" stroke-linecap="round" />
</g>
<g transform="matrix(5.9735 0 0 5.9735 169.4433 663.6876)"  >
<path style="stroke: none; stroke-width: 1; stroke-dasharray: none; stroke-linecap: butt; stroke-dashoffset: 0; stroke-linejoin: miter; stroke-miterlimit: 4; fill: rgb(162,0,183); fill-rule: nonzero; opacity: 1;"  transform=" translate(5.1861, -6.112)" d="M 0 0 C 0.9045 2.4875 1.218 4.3003 0.4219 6.8555 C -0.5535 8.86 -1.4586 10.3848 -3 12 C -6.6875 13 -6.6875 13 -10 13 C -11 12 -11 12 -11.25 9.25 C -10.9678 5.5816 -10.2446 3.8859 -8 1 C -5.0439 -1.0979 -3.3892 -1.2104 0 0 Z M -7.1875 3.6875 C -9.3105 6.3962 -9.3725 7.6471 -9 11 C -6.5912 10.8866 -6.5912 10.8866 -4 10 C -2.0287 7.715 -2.0287 7.715 -1 5 C -1.33 4.01 -1.66 3.02 -2 2 C -5.0646 1.6946 -5.0646 1.6946 -7.1875 3.6875 Z" stroke-linecap="round" />
</g>
<g transform="matrix(5.9735 0 0 5.9735 397.5466 453.0041)"  >
<path style="stroke: none; stroke-width: 1; stroke-dasharray: none; stroke-linecap: butt; stroke-dashoffset: 0; stroke-linejoin: miter; stroke-miterlimit: 4; fill: rgb(162,0,183); fill-rule: nonzero; opacity: 1;"  transform=" translate(-13, -3.8421)" d="M 0 0 C 0.5105 0.2888 1.0209 0.5775 1.5469 0.875 C 9.1583 4.7617 16.5009 5.1998 24.75 3 C 25.4925 2.67 26.235 2.34 27 2 C 27 2.66 27 3.32 27 4 C 26.34 4 25.68 4 25 4 C 25 4.66 25 5.32 25 6 C 17.2131 7.8921 10.3948 8.9426 3.1094 4.9688 C 1.6953 4.0436 0.3394 3.0303 -1 2 C -0.67 1.34 -0.34 0.68 0 0 Z" stroke-linecap="round" />
</g>
<g transform="matrix(5.9735 0 0 5.9735 505.0691 519.6556)"  >
<path style="stroke: none; stroke-width: 1; stroke-dasharray: none; stroke-linecap: butt; stroke-dashoffset: 0; stroke-linejoin: miter; stroke-miterlimit: 4; fill: rgb(162,0,183); fill-rule: nonzero; opacity: 1;"  transform=" translate(-4, -9)" d="M 0 0 C 2.4582 3.6873 3.0124 6.697 4 11 C 4.33 9.35 4.66 7.7 5 6 C 6.32 6.66 7.64 7.32 9 8 C 8.2117 9.2937 7.4192 10.5849 6.625 11.875 C 6.1841 12.5943 5.7433 13.3136 5.2891 14.0547 C 4 16 4 16 2 18 C 1.01 17.67 0.02 17.34 -1 17 C -0.4741 16.1028 -0.4741 16.1028 0.0625 15.1875 C 1.333 12.8919 1.333 12.8919 0 10 C -0.068 8.272 -0.085 6.5416 -0.0625 4.8125 C -0.0535 3.9114 -0.0445 3.0104 -0.0352 2.082 C -0.0236 1.395 -0.012 0.7079 0 0 Z" stroke-linecap="round" />
</g>
<g transform="matrix(5.9735 0 0 5.9735 59.6222 821.3159)"  >
<path style="stroke: none; stroke-width: 1; stroke-dasharray: none; stroke-linecap: butt; stroke-dashoffset: 0; stroke-linejoin: miter; stroke-miterlimit: 4; fill: rgb(162,0,183); fill-rule: nonzero; opacity: 1;"  transform=" translate(5.5709, -7.5)" d="M 0 0 C 1.6521 4.9562 0.4993 9.8403 0 15 C -3.96 15 -7.92 15 -12 15 C -12 14.34 -12 13.68 -12 13 C -7.545 12.505 -7.545 12.505 -3 12 C -2.8763 10.5769 -2.7525 9.1538 -2.625 7.6875 C -2.3212 4.1943 -2.0235 3.0353 0 0 Z" stroke-linecap="round" />
</g>
<g transform="matrix(5.9735 0 0 5.9735 427.414 582.3772)"  >
<path style="stroke: none; stroke-width: 1; stroke-dasharray: none; stroke-linecap: butt; stroke-dashoffset: 0; stroke-linejoin: miter; stroke-miterlimit: 4; fill: rgb(162,0,183); fill-rule: nonzero; opacity: 1;"  transform=" translate(-7, -5.5)" d="M 0 0 C 0.66 0 1.32 0 2 0 C 3.6875 1.75 3.6875 1.75 5 4 C 4.582 6.1406 4.582 6.1406 4 8 C 4.6265 7.7112 5.253 7.4225 5.8984 7.125 C 7.1243 6.5681 7.1243 6.5681 8.375 6 C 9.1871 5.6288 9.9992 5.2575 10.8359 4.875 C 13 4 13 4 15 4 C 15 4.66 15 5.32 15 6 C 10.545 7.485 10.545 7.485 6 9 C 6 9.66 6 10.32 6 11 C 3.0848 9.926 1.2219 9.2219 -1 7 C -0.01 6.67 0.98 6.34 2 6 C 1.34 5.01 0.68 4.02 0 3 C 0 2.01 0 1.02 0 0 Z" stroke-linecap="round" />
</g>
<g transform="matrix(5.9735 0 0 5.9735 445.2735 510.8822)"  >
<path style="stroke: none; stroke-width: 1; stroke-dasharray: none; stroke-linecap: butt; stroke-dashoffset: 0; stroke-linejoin: miter; stroke-miterlimit: 4; fill: rgb(162,0,183); fill-rule: nonzero; opacity: 1;"  transform=" translate(0.5728, -4.5938)" d="M 0 0 C 1.1344 0.0206 2.2687 0.0413 3.4375 0.0625 C 3.5352 6.2148 3.5352 6.2148 3.4375 8.0625 C 2.4375 9.0625 2.4375 9.0625 -0.5625 9.1875 C -3.5625 9.0625 -3.5625 9.0625 -4.5625 8.0625 C -4.6875 4.5625 -4.6875 4.5625 -4.5625 1.0625 C -3.5625 0.0625 -3.5625 0.0625 0 0 Z M -2.5625 2.0625 C -2.5625 3.7125 -2.5625 5.3625 -2.5625 7.0625 C -1.2425 7.0625 0.0775 7.0625 1.4375 7.0625 C 1.4375 5.4125 1.4375 3.7625 1.4375 2.0625 C 0.1175 2.0625 -1.2025 2.0625 -2.5625 2.0625 Z" stroke-linecap="round" />
</g>
<g transform="matrix(5.9735 0 0 5.9735 391.5732 921.0244)"  >
<path style="stroke: none; stroke-width: 1; stroke-dasharray: none; stroke-linecap: butt; stroke-dashoffset: 0; stroke-linejoin: miter; stroke-miterlimit: 4; fill: rgb(162,0,183); fill-rule: nonzero; opacity: 1;"  transform=" translate(6, -2.1919)" d="M 0 0 C -0.99 0.495 -0.99 0.495 -2 1 C -2.33 2.32 -2.66 3.64 -3 5 C -5.97 5 -8.94 5 -12 5 C -8.48 -1.2401 -7.0243 -1.1707 0 0 Z" stroke-linecap="round" />
</g>
<g transform="matrix(5.9735 0 0 5.9735 542.865 340.4515)"  >
<path style="stroke: none; stroke-width: 1; stroke-dasharray: none; stroke-linecap: butt; stroke-dashoffset: 0; stroke-linejoin: miter; stroke-miterlimit: 4; fill: rgb(162,0,183); fill-rule: nonzero; opacity: 1;"  transform=" translate(-0.3273, -10)" d="M 0 0 C 0.66 0 1.32 0 2 0 C 3.3119 7.4289 2.6549 12.9502 0 20 C -0.66 19.67 -1.32 19.34 -2 19 C -1.8556 18.2987 -1.7112 17.5975 -1.5625 16.875 C -0.439 11.1328 0.2207 5.8478 0 0 Z" stroke-linecap="round" />
</g>
<g transform="matrix(5.9735 0 0 5.9735 323.8116 336.2192)"  >
<path style="stroke: none; stroke-width: 1; stroke-dasharray: none; stroke-linecap: butt; stroke-dashoffset: 0; stroke-linejoin: miter; stroke-miterlimit: 4; fill: rgb(162,0,183); fill-rule: nonzero; opacity: 1;"  transform=" translate(-2.6563, -4.2915)" d="M 0 0 C 2.5 -0.3125 2.5 -0.3125 5 0 C 7 2 7 2 7.3125 4.5 C 7.1578 5.7375 7.1578 5.7375 7 7 C 4 9 4 9 1.3125 8.625 C 0.5494 8.4187 -0.2137 8.2125 -1 8 C -1.625 5.6875 -1.625 5.6875 -2 3 C -1.34 2.01 -0.68 1.02 0 0 Z M 1 2 C 0.67 3.32 0.34 4.64 0 6 C 1.32 6.33 2.64 6.66 4 7 C 4.33 5.35 4.66 3.7 5 2 C 3.68 2 2.36 2 1 2 Z" stroke-linecap="round" />
</g>
<g transform="matrix(5.9735 0 0 5.9735 910.8454 615.7913)"  >
<path style="stroke: none; stroke-width: 1; stroke-dasharray: none; stroke-linecap: butt; stroke-dashoffset: 0; stroke-linejoin: miter; stroke-miterlimit: 4; fill: rgb(162,0,183); fill-rule: nonzero; opacity: 1;"  transform=" translate(-1.9297, -4.0938)" d="M 0 0 C 2.625 0.375 2.625 0.375 5 1 C 5.625 3.375 5.625 3.375 6 6 C 4 8 4 8 1.4375 8.1875 C -1 8 -1 8 -2 7 C -2.1875 4.5625 -2.1875 4.5625 -2 2 C -1.34 1.34 -0.68 0.68 0 0 Z M 1 2 C 1 3.32 1 4.64 1 6 C 1.99 5.67 2.98 5.34 4 5 C 3.01 4.01 2.02 3.02 1 2 Z" stroke-linecap="round" />
</g>
<g transform="matrix(5.9735 0 0 5.9735 959.9863 194.0079)"  >
<path style="stroke: none; stroke-width: 1; stroke-dasharray: none; stroke-linecap: butt; stroke-dashoffset: 0; stroke-linejoin: miter; stroke-miterlimit: 4; fill: rgb(162,0,183); fill-rule: nonzero; opacity: 1;"  transform=" translate(-2.1563, -7.4844)" d="M 0 0 C 1.6661 -0.0427 3.3338 -0.0406 5 0 C 6 1 6 1 6.3125 4.125 C 5.9287 8.8844 4.5802 11.049 2 15 C 1.67 14.34 1.34 13.68 1 13 C 0.01 12.67 -0.98 12.34 -2 12 C -1.01 12 -0.02 12 1 12 C 1.33 10.35 1.66 8.7 2 7 C 2.66 7 3.32 7 4 7 C 4 5.02 4 3.04 4 1 C 2.68 0.67 1.36 0.34 0 0 Z" stroke-linecap="round" />
</g>
<g transform="matrix(5.9735 0 0 5.9735 937.6792 200.075)"  >
<path style="stroke: none; stroke-width: 1; stroke-dasharray: none; stroke-linecap: butt; stroke-dashoffset: 0; stroke-linejoin: miter; stroke-miterlimit: 4; fill: rgb(162,0,183); fill-rule: nonzero; opacity: 1;"  transform=" translate(-1.4219, -3.5)" d="M 0 0 C 2.125 0.375 2.125 0.375 4 1 C 5.125 4.75 5.125 4.75 4 7 C 2.35 7 0.7 7 -1 7 C -1.625 4.625 -1.625 4.625 -2 2 C -1.34 1.34 -0.68 0.68 0 0 Z" stroke-linecap="round" />
</g>
<g transform="matrix(5.9735 0 0 5.9735 967.6601 182.1546)"  >
<path style="stroke: none; stroke-width: 1; stroke-dasharray: none; stroke-linecap: butt; stroke-dashoffset: 0; stroke-linejoin: miter; stroke-miterlimit: 4; fill: rgb(162,0,183); fill-rule: nonzero; opacity: 1;"  transform=" translate(-3.4409, -7.5)" d="M 0 0 C 1.98 0 3.96 0 6 0 C 8.4222 3.4196 7.999 6.1551 7.4844 10.0977 C 7 12 7 12 5 15 C 4.34 14.67 3.68 14.34 3 14 C 3.33 13.4844 3.66 12.9688 4 12.4375 C 5.3201 9.2197 5.1324 6.4429 5 3 C 3.02 3 1.04 3 -1 3 C -0.67 2.01 -0.34 1.02 0 0 Z" stroke-linecap="round" />
</g>
<g transform="matrix(5.9735 0 0 5.9735 893.5117 229.9424)"  >
<path style="stroke: none; stroke-width: 1; stroke-dasharray: none; stroke-linecap: butt; stroke-dashoffset: 0; stroke-linejoin: miter; stroke-miterlimit: 4; fill: rgb(162,0,183); fill-rule: nonzero; opacity: 1;"  transform=" translate(1.9721, -5.5)" d="M 0 0 C 1.0754 3.2261 1.1438 5.6218 1 9 C 0.67 9.66 0.34 10.32 0 11 C -1.65 10.67 -3.3 10.34 -5 10 C -4 7 -3 4 -2 1 C -1.34 0.67 -0.68 0.34 0 0 Z" stroke-linecap="round" />
</g>
<g transform="matrix(5.9735 0 0 5.9735 484.1619 916.8915)"  >
<path style="stroke: none; stroke-width: 1; stroke-dasharray: none; stroke-linecap: butt; stroke-dashoffset: 0; stroke-linejoin: miter; stroke-miterlimit: 4; fill: rgb(162,0,183); fill-rule: nonzero; opacity: 1;"  transform=" translate(-8.5, -4.5)" d="M 0 0 C 0.66 0 1.32 0 2 0 C 2.3712 0.9694 2.7425 1.9387 3.125 2.9375 C 4.6959 6.2238 4.6959 6.2238 7.8125 7 C 11.2889 7 13.7924 6.2983 17 5 C 17 6.3333 17 7.6667 17 9 C 12.71 9 8.42 9 4 9 C 0 2.25 0 2.25 0 0 Z" stroke-linecap="round" />
</g>
<g transform="matrix(5.9735 0 0 5.9735 161.128 275.1167)"  >
<path style="stroke: none; stroke-width: 1; stroke-dasharray: none; stroke-linecap: butt; stroke-dashoffset: 0; stroke-linejoin: miter; stroke-miterlimit: 4; fill: rgb(162,0,183); fill-rule: nonzero; opacity: 1;"  transform=" translate(-0.4219, -4.0625)" d="M 0 0 C 1.32 0.66 2.64 1.32 4 2 C 4.0427 3.6661 4.0406 5.3338 4 7 C 3 8 3 8 0.5 8.125 C -2 8 -2 8 -3 7 C -3.25 4.5625 -3.25 4.5625 -3 2 C -2.01 1.34 -1.02 0.68 0 0 Z M -1 3 C -1 3.99 -1 4.98 -1 6 C -0.01 6 0.98 6 2 6 C 2 5.01 2 4.02 2 3 C 1.01 3 0.02 3 -1 3 Z" stroke-linecap="round" />
</g>
<g transform="matrix(5.9735 0 0 5.9735 564.8039 618.2179)"  >
<path style="stroke: none; stroke-width: 1; stroke-dasharray: none; stroke-linecap: butt; stroke-dashoffset: 0; stroke-linejoin: miter; stroke-miterlimit: 4; fill: rgb(162,0,183); fill-rule: nonzero; opacity: 1;"  transform=" translate(4, -6.5)" d="M 0 0 C 0.66 0.33 1.32 0.66 2 1 C -0.5043 5.7304 -2.8498 9.4883 -7 13 C -7.99 13 -8.98 13 -10 13 C -10 12.34 -10 11.68 -10 11 C -8.5742 9.668 -8.5742 9.668 -6.6875 8.1875 C -3.7143 5.7379 -1.7447 3.4893 0 0 Z" stroke-linecap="round" />
</g>
<g transform="matrix(5.9735 0 0 5.9735 496.109 450.9608)"  >
<path style="stroke: none; stroke-width: 1; stroke-dasharray: none; stroke-linecap: butt; stroke-dashoffset: 0; stroke-linejoin: miter; stroke-miterlimit: 4; fill: rgb(162,0,183); fill-rule: nonzero; opacity: 1;"  transform=" translate(-3.5, -5.5)" d="M 0 0 C 2.64 0 5.28 0 8 0 C 8 0.66 8 1.32 8 2 C 7.3606 2.4125 6.7213 2.825 6.0625 3.25 C 3.2964 5.597 3.3129 7.4801 3 11 C 1.68 9.35 0.36 7.7 -1 6 C -0.34 6 0.32 6 1 6 C 1.2981 2.2236 1.2981 2.2236 0 0 Z" stroke-linecap="round" />
</g>
<g transform="matrix(5.9735 0 0 5.9735 947.106 173.1944)"  >
<path style="stroke: none; stroke-width: 1; stroke-dasharray: none; stroke-linecap: butt; stroke-dashoffset: 0; stroke-linejoin: miter; stroke-miterlimit: 4; fill: rgb(162,0,183); fill-rule: nonzero; opacity: 1;"  transform=" translate(-1, -3)" d="M 0 0 C 1.65 0 3.3 0 5 0 C 5 1.98 5 3.96 5 6 C 2.0712 5.3724 -0.361 4.4138 -3 3 C -2.01 2.67 -1.02 2.34 0 2 C 0 1.34 0 0.68 0 0 Z" stroke-linecap="round" />
</g>
<g transform="matrix(5.9735 0 0 5.9735 310.9313 920.7032)"  >
<path style="stroke: none; stroke-width: 1; stroke-dasharray: none; stroke-linecap: butt; stroke-dashoffset: 0; stroke-linejoin: miter; stroke-miterlimit: 4; fill: rgb(162,0,183); fill-rule: nonzero; opacity: 1;"  transform=" translate(-7.5, -4.1381)" d="M 0 0 C 0.4357 0.4447 0.8714 0.8895 1.3203 1.3477 C 5.1312 5.1478 5.1312 5.1478 10.25 5.9375 C 11.1575 5.6281 12.065 5.3187 13 5 C 13.99 4.67 14.98 4.34 16 4 C 15.34 5.32 14.68 6.64 14 8 C 10.9472 8.2935 8.043 8.4362 5 8 C 2.5625 5.625 2.5625 5.625 1 3 C 0.34 2.34 -0.32 1.68 -1 1 C -0.67 0.67 -0.34 0.34 0 0 Z" stroke-linecap="round" />
</g>
<g transform="matrix(5.9735 0 0 5.9735 445.1478 638.6514)"  >
<path style="stroke: none; stroke-width: 1; stroke-dasharray: none; stroke-linecap: butt; stroke-dashoffset: 0; stroke-linejoin: miter; stroke-miterlimit: 4; fill: rgb(162,0,183); fill-rule: nonzero; opacity: 1;"  transform=" translate(-4.9688, -3.9207)" d="M 0 0 C 0.33 1.32 0.66 2.64 1 4 C 2.1138 3.9381 3.2275 3.8763 4.375 3.8125 C 6.1694 3.9053 6.1694 3.9053 8 4 C 8.99 5.485 8.99 5.485 10 7 C 6.9084 8.5458 4.3153 7.6028 1 7 C 0 6 0 6 -0.0625 2.9375 C -0.0419 1.9681 -0.0213 0.9988 0 0 Z" stroke-linecap="round" />
</g>
<g transform="matrix(5.9735 0 0 5.9735 941.1326 286.6903)"  >
<path style="stroke: none; stroke-width: 1; stroke-dasharray: none; stroke-linecap: butt; stroke-dashoffset: 0; stroke-linejoin: miter; stroke-miterlimit: 4; fill: rgb(162,0,183); fill-rule: nonzero; opacity: 1;"  transform=" translate(1, -5)" d="M 0 0 C 0.66 0 1.32 0 2 0 C 1.5077 6.5231 1.5077 6.5231 -1.0625 8.9375 C -1.7019 9.2881 -2.3413 9.6387 -3 10 C -3.75 8.375 -3.75 8.375 -4 6 C -2.1875 2.75 -2.1875 2.75 0 0 Z" stroke-linecap="round" />
</g>
<g transform="matrix(5.9735 0 0 5.9735 448.3212 612.6645)"  >
<path style="stroke: none; stroke-width: 1; stroke-dasharray: none; stroke-linecap: butt; stroke-dashoffset: 0; stroke-linejoin: miter; stroke-miterlimit: 4; fill: rgb(162,0,183); fill-rule: nonzero; opacity: 1;"  transform=" translate(-0.5, -3.5703)" d="M 0 0 C 0.33 0.99 0.66 1.98 1 3 C 0.67 3.33 0.34 3.66 0 4 C 1.65 4 3.3 4 5 4 C 3.8125 5.5 3.8125 5.5 2 7 C -0.6875 7.1875 -0.6875 7.1875 -3 7 C -3.33 5.35 -3.66 3.7 -4 2 C -2.68 1.34 -1.36 0.68 0 0 Z" stroke-linecap="round" />
</g>
<g transform="matrix(5.9735 0 0 5.9735 148.901 668.9924)"  >
<path style="stroke: none; stroke-width: 1; stroke-dasharray: none; stroke-linecap: butt; stroke-dashoffset: 0; stroke-linejoin: miter; stroke-miterlimit: 4; fill: rgb(162,0,183); fill-rule: nonzero; opacity: 1;"  transform=" translate(0.625, -6)" d="M 0 0 C 0.66 0.33 1.32 0.66 2 1 C 1.01 3.97 0.02 6.94 -1 10 C -0.01 10.33 0.98 10.66 2 11 C 0.0625 11.5625 0.0625 11.5625 -2 12 C -3 11 -3 11 -3.25 8.25 C -2.9743 4.6664 -2.0481 2.9014 0 0 Z" stroke-linecap="round" />
</g>
<g transform="matrix(5.9735 0 0 5.9735 812.7029 456.9342)"  >
<path style="stroke: none; stroke-width: 1; stroke-dasharray: none; stroke-linecap: butt; stroke-dashoffset: 0; stroke-linejoin: miter; stroke-miterlimit: 4; fill: rgb(162,0,183); fill-rule: nonzero; opacity: 1;"  transform=" translate(-2.5, -4.5)" d="M 0 0 C 2.3598 0.9358 4.6963 1.9335 7 3 C 7 4.98 7 6.96 7 9 C 6.34 9 5.68 9 5 9 C 4.67 7.35 4.34 5.7 4 4 C 1.03 3.505 1.03 3.505 -2 3 C -2 2.34 -2 1.68 -2 1 C -1.34 0.67 -0.68 0.34 0 0 Z" stroke-linecap="round" />
</g>
<g transform="matrix(5.9735 0 0 5.9735 899.3183 292.6639)"  >
<path style="stroke: none; stroke-width: 1; stroke-dasharray: none; stroke-linecap: butt; stroke-dashoffset: 0; stroke-linejoin: miter; stroke-miterlimit: 4; fill: rgb(162,0,183); fill-rule: nonzero; opacity: 1;"  transform=" translate(-5, -4)" d="M 0 0 C 4.95 0.99 4.95 0.99 10 2 C 10 3.98 10 5.96 10 8 C 9.34 8 8.68 8 8 8 C 8 7.01 8 6.02 8 5 C 7.0512 4.7319 6.1025 4.4638 5.125 4.1875 C 2 3 2 3 0 0 Z" stroke-linecap="round" />
</g>
<g transform="matrix(5.9735 0 0 5.9735 433.7925 854.17)"  >
<path style="stroke: none; stroke-width: 1; stroke-dasharray: none; stroke-linecap: butt; stroke-dashoffset: 0; stroke-linejoin: miter; stroke-miterlimit: 4; fill: rgb(162,0,183); fill-rule: nonzero; opacity: 1;"  transform=" translate(-1.0678, -6)" d="M 0 0 C 0.66 0.33 1.32 0.66 2 1 C 2.4141 3.5039 2.4141 3.5039 2.625 6.5625 C 2.6998 7.5744 2.7745 8.5863 2.8516 9.6289 C 2.925 10.8026 2.925 10.8026 3 12 C 2.34 12 1.68 12 1 12 C 0.6376 10.3768 0.2853 8.7514 -0.0625 7.125 C -0.2597 6.2201 -0.457 5.3152 -0.6602 4.3828 C -1 2 -1 2 0 0 Z" stroke-linecap="round" />
</g>
<g transform="matrix(5.9735 0 0 5.9735 316.9048 477.8414)"  >
<path style="stroke: none; stroke-width: 1; stroke-dasharray: none; stroke-linecap: butt; stroke-dashoffset: 0; stroke-linejoin: miter; stroke-miterlimit: 4; fill: rgb(162,0,183); fill-rule: nonzero; opacity: 1;"  transform=" translate(-1.5, -6)" d="M 0 0 C 0.66 0.33 1.32 0.66 2 1 C 2.6328 3.2852 2.6328 3.2852 3.125 6.0625 C 3.2926 6.9816 3.4602 7.9007 3.6328 8.8477 C 3.754 9.5579 3.8752 10.2682 4 11 C 3.01 11.495 3.01 11.495 2 12 C 1.01 8.37 0.02 4.74 -1 1 C -0.67 0.67 -0.34 0.34 0 0 Z" stroke-linecap="round" />
</g>
<g transform="matrix(5.9735 0 0 5.9735 872.4376 286.6904)"  >
<path style="stroke: none; stroke-width: 1; stroke-dasharray: none; stroke-linecap: butt; stroke-dashoffset: 0; stroke-linejoin: miter; stroke-miterlimit: 4; fill: rgb(162,0,183); fill-rule: nonzero; opacity: 1;"  transform=" translate(-1.5, -3)" d="M 0 0 C 1.98 0.99 3.96 1.98 6 3 C 6 3.66 6 4.32 6 5 C 5.01 5.33 4.02 5.66 3 6 C 2.34 5.34 1.68 4.68 1 4 C -0.98 4.99 -0.98 4.99 -3 6 C -2 4 -1 2 0 0 Z" stroke-linecap="round" />
</g>
<g transform="matrix(5.9735 0 0 5.9735 920.2254 188.128)"  >
<path style="stroke: none; stroke-width: 1; stroke-dasharray: none; stroke-linecap: butt; stroke-dashoffset: 0; stroke-linejoin: miter; stroke-miterlimit: 4; fill: rgb(162,0,183); fill-rule: nonzero; opacity: 1;"  transform=" translate(3.5, -5.5)" d="M 0 0 C 0 0.66 0 1.32 0 2 C -0.66 2.66 -1.32 3.32 -2 4 C -2.4005 6.3228 -2.7397 8.6574 -3 11 C -4.32 10.01 -5.64 9.02 -7 8 C -4.1892 0 -4.1892 0 0 0 Z" stroke-linecap="round" />
</g>
<g transform="matrix(5.9735 0 0 5.9735 343.7855 447.9741)"  >
<path style="stroke: none; stroke-width: 1; stroke-dasharray: none; stroke-linecap: butt; stroke-dashoffset: 0; stroke-linejoin: miter; stroke-miterlimit: 4; fill: rgb(162,0,183); fill-rule: nonzero; opacity: 1;"  transform=" translate(-4, -3)" d="M 0 0 C 4.455 1.98 4.455 1.98 9 4 C 9 4.66 9 5.32 9 6 C 4.2483 5.568 2.08 4.6723 -1 1 C -0.67 0.67 -0.34 0.34 0 0 Z" stroke-linecap="round" />
</g>
<g transform="matrix(5.9735 0 0 5.9735 406.507 146.3138)"  >
<path style="stroke: none; stroke-width: 1; stroke-dasharray: none; stroke-linecap: butt; stroke-dashoffset: 0; stroke-linejoin: miter; stroke-miterlimit: 4; fill: rgb(162,0,183); fill-rule: nonzero; opacity: 1;"  transform=" translate(-2.5, -2.5)" d="M 0 0 C 2.475 0.495 2.475 0.495 5 1 C 4.67 2.32 4.34 3.64 4 5 C 2.68 5 1.36 5 0 5 C 0 3.35 0 1.7 0 0 Z" stroke-linecap="round" />
</g>
<g transform="matrix(5.9735 0 0 5.9735 499.0958 654.0588)"  >
<path style="stroke: none; stroke-width: 1; stroke-dasharray: none; stroke-linecap: butt; stroke-dashoffset: 0; stroke-linejoin: miter; stroke-miterlimit: 4; fill: rgb(162,0,183); fill-rule: nonzero; opacity: 1;"  transform=" translate(-3, -4.5)" d="M 0 0 C 2 1.8125 2 1.8125 4 4 C 4 4.99 4 5.98 4 7 C 4.66 7.33 5.32 7.66 6 8 C 4.68 8.33 3.36 8.66 2 9 C 0 3.375 0 3.375 0 0 Z" stroke-linecap="round" />
</g>
<g transform="matrix(5.9735 0 0 5.9735 877.6644 229.9424)"  >
<path style="stroke: none; stroke-width: 1; stroke-dasharray: none; stroke-linecap: butt; stroke-dashoffset: 0; stroke-linejoin: miter; stroke-miterlimit: 4; fill: rgb(162,0,183); fill-rule: nonzero; opacity: 1;"  transform=" translate(1.625, -3.5)" d="M 0 0 C 1 3 1 3 0 6 C -2.0625 6.6875 -2.0625 6.6875 -4 7 C -4 5.68 -4 4.36 -4 3 C -3.34 3 -2.68 3 -2 3 C -2 2.34 -2 1.68 -2 1 C -1.34 0.67 -0.68 0.34 0 0 Z" stroke-linecap="round" />
</g>
<g transform="matrix(5.9735 0 0 5.9735 316.9048 331.3047)"  >
<path style="stroke: none; stroke-width: 1; stroke-dasharray: none; stroke-linecap: butt; stroke-dashoffset: 0; stroke-linejoin: miter; stroke-miterlimit: 4; fill: rgb(162,0,183); fill-rule: nonzero; opacity: 1;"  transform=" translate(1.0625, -3.5313)" d="M 0 0 C 1.2066 0.0309 1.2066 0.0309 2.4375 0.0625 C 2.1075 0.7225 1.7775 1.3825 1.4375 2.0625 C 0.4475 2.3925 -0.5425 2.7225 -1.5625 3.0625 C -1.5625 4.3825 -1.5625 5.7025 -1.5625 7.0625 C -2.5525 6.7325 -3.5425 6.4025 -4.5625 6.0625 C -3.4896 0.0851 -3.4896 0.0851 0 0 Z" stroke-linecap="round" />
</g>
<g transform="matrix(5.9735 0 0 5.9735 782.8356 373.3057)"  >
<path style="stroke: none; stroke-width: 1; stroke-dasharray: none; stroke-linecap: butt; stroke-dashoffset: 0; stroke-linejoin: miter; stroke-miterlimit: 4; fill: rgb(162,0,183); fill-rule: nonzero; opacity: 1;"  transform=" translate(0.5, -3.5)" d="M 0 0 C 0.99 0.33 1.98 0.66 3 1 C -0.465 3.97 -0.465 3.97 -4 7 C -4 4 -4 4 -2 1.8125 C -1.34 1.2144 -0.68 0.6162 0 0 Z" stroke-linecap="round" />
</g>
<g transform="matrix(5.9735 0 0 5.9735 451.308 516.669)"  >
<path style="stroke: none; stroke-width: 1; stroke-dasharray: none; stroke-linecap: butt; stroke-dashoffset: 0; stroke-linejoin: miter; stroke-miterlimit: 4; fill: rgb(162,0,183); fill-rule: nonzero; opacity: 1;"  transform=" translate(2, -3.5)" d="M 0 0 C 0.33 0 0.66 0 1 0 C 1 1.98 1 3.96 1 6 C -0.65 6.33 -2.3 6.66 -4 7 C -4.33 6.34 -4.66 5.68 -5 5 C -3.68 5 -2.36 5 -1 5 C -0.67 3.35 -0.34 1.7 0 0 Z" stroke-linecap="round" />
</g>
<g transform="matrix(5.9735 0 0 5.9735 457.2814 415.12)"  >
<path style="stroke: none; stroke-width: 1; stroke-dasharray: none; stroke-linecap: butt; stroke-dashoffset: 0; stroke-linejoin: miter; stroke-miterlimit: 4; fill: rgb(162,0,183); fill-rule: nonzero; opacity: 1;"  transform=" translate(-4, -2.5)" d="M 0 0 C 6.875 2.75 6.875 2.75 8 5 C 2.25 4.125 2.25 4.125 0 3 C 0 2.01 0 1.02 0 0 Z" stroke-linecap="round" />
</g>
<g transform="matrix(5.9735 0 0 5.9735 908.2785 630.165)"  >
<path style="stroke: none; stroke-width: 1; stroke-dasharray: none; stroke-linecap: butt; stroke-dashoffset: 0; stroke-linejoin: miter; stroke-miterlimit: 4; fill: rgb(162,0,183); fill-rule: nonzero; opacity: 1;"  transform=" translate(-3.5, -1.5)" d="M 0 0 C 2.31 0 4.62 0 7 0 C 6.67 0.99 6.34 1.98 6 3 C 4.35 3 2.7 3 1 3 C 0.67 2.01 0.34 1.02 0 0 Z" stroke-linecap="round" />
</g>
<g transform="matrix(5.9735 0 0 5.9735 158.6079 283.7037)"  >
<path style="stroke: none; stroke-width: 1; stroke-dasharray: none; stroke-linecap: butt; stroke-dashoffset: 0; stroke-linejoin: miter; stroke-miterlimit: 4; fill: rgb(162,0,183); fill-rule: nonzero; opacity: 1;"  transform=" translate(-2, -2.5)" d="M 0 0 C 0.33 0.99 0.66 1.98 1 3 C 1.99 3 2.98 3 4 3 C 4.33 2.34 4.66 1.68 5 1 C 5 2.32 5 3.64 5 5 C 3.35 5 1.7 5 0 5 C -0.33 4.01 -0.66 3.02 -1 2 C -0.67 1.34 -0.34 0.68 0 0 Z" stroke-linecap="round" />
</g>
<g transform="matrix(5.9735 0 0 5.9735 424.4274 558.4832)"  >
<path style="stroke: none; stroke-width: 1; stroke-dasharray: none; stroke-linecap: butt; stroke-dashoffset: 0; stroke-linejoin: miter; stroke-miterlimit: 4; fill: rgb(162,0,183); fill-rule: nonzero; opacity: 1;"  transform=" translate(-1.5, -2.5)" d="M 0 0 C 0.66 0 1.32 0 2 0 C 2.33 1.65 2.66 3.3 3 5 C 2.01 5 1.02 5 0 5 C 0 3.35 0 1.7 0 0 Z" stroke-linecap="round" />
</g>
<g transform="matrix(5.9735 0 0 5.9735 976.9734 444.9873)"  >
<path style="stroke: none; stroke-width: 1; stroke-dasharray: none; stroke-linecap: butt; stroke-dashoffset: 0; stroke-linejoin: miter; stroke-miterlimit: 4; fill: rgb(162,0,183); fill-rule: nonzero; opacity: 1;"  transform=" translate(0, -2.5)" d="M 0 0 C 0.66 0.99 1.32 1.98 2 3 C 1.67 3.66 1.34 4.32 1 5 C 0.34 5 -0.32 5 -1 5 C -1.33 4.01 -1.66 3.02 -2 2 C -1.34 1.34 -0.68 0.68 0 0 Z" stroke-linecap="round" />
</g>
<g transform="matrix(5.9735 0 0 5.9735 773.8755 283.7037)"  >
<path style="stroke: none; stroke-width: 1; stroke-dasharray: none; stroke-linecap: butt; stroke-dashoffset: 0; stroke-linejoin: miter; stroke-miterlimit: 4; fill: rgb(162,0,183); fill-rule: nonzero; opacity: 1;"  transform=" translate(0, -2.5)" d="M 0 0 C 0.66 0.99 1.32 1.98 2 3 C 1.67 3.66 1.34 4.32 1 5 C 0.34 5 -0.32 5 -1 5 C -1.33 4.01 -1.66 3.02 -2 2 C -1.34 1.34 -0.68 0.68 0 0 Z" stroke-linecap="round" />
</g>
<g transform="matrix(5.9735 0 0 5.9735 113.8069 531.6027)"  >
<path style="stroke: none; stroke-width: 1; stroke-dasharray: none; stroke-linecap: butt; stroke-dashoffset: 0; stroke-linejoin: miter; stroke-miterlimit: 4; fill: rgb(162,0,183); fill-rule: nonzero; opacity: 1;"  transform=" translate(-0.5, -2)" d="M 0 0 C 0.99 0.99 1.98 1.98 3 3 C 2.01 3.33 1.02 3.66 0 4 C -0.66 3.34 -1.32 2.68 -2 2 C -1.34 1.34 -0.68 0.68 0 0 Z" stroke-linecap="round" />
</g>
<g transform="matrix(5.9735 0 0 5.9735 636.4856 352.3986)"  >
<path style="stroke: none; stroke-width: 1; stroke-dasharray: none; stroke-linecap: butt; stroke-dashoffset: 0; stroke-linejoin: miter; stroke-miterlimit: 4; fill: rgb(162,0,183); fill-rule: nonzero; opacity: 1;"  transform=" translate(0, -2)" d="M 0 0 C 0.66 0.33 1.32 0.66 2 1 C 1.67 1.99 1.34 2.98 1 4 C 0.01 3.67 -0.98 3.34 -2 3 C -2 2.34 -2 1.68 -2 1 C -1.34 0.67 -0.68 0.34 0 0 Z" stroke-linecap="round" />
</g>
<g transform="matrix(1 0 0 1 51.9096 21.7683)"  >
<path style="stroke: none; stroke-width: 1; stroke-dasharray: none; stroke-linecap: butt; stroke-dashoffset: 0; stroke-linejoin: miter; stroke-miterlimit: 4; fill: rgb(0,0,0); fill-rule: nonzero; opacity: 1;"  transform=" translate(0, 0)" d="" stroke-linecap="round" />
</g>
</svg>